<mxfile host="app.diagrams.net" modified="2024-07-23T11:25:06.819Z" agent="Mozilla/5.0 (Windows NT 10.0; Win64; x64; rv:128.0) Gecko/20100101 Firefox/128.0" etag="RFFqulZOKNT7E3ury6je" version="24.7.3" type="github">
  <diagram id="C5RBs43oDa-KdzZeNtuy" name="Page-1">
    <mxGraphModel dx="1235" dy="738" grid="1" gridSize="10" guides="1" tooltips="1" connect="1" arrows="1" fold="1" page="1" pageScale="1" pageWidth="827" pageHeight="1169" math="0" shadow="0">
      <root>
        <mxCell id="WIyWlLk6GJQsqaUBKTNV-0" />
        <mxCell id="WIyWlLk6GJQsqaUBKTNV-1" parent="WIyWlLk6GJQsqaUBKTNV-0" />
        <mxCell id="FqJM-CYI0kvCl4BrO27K-14" value="" style="edgeStyle=none;curved=1;rounded=0;orthogonalLoop=1;jettySize=auto;html=1;fontSize=12;startSize=8;endSize=8;" edge="1" parent="WIyWlLk6GJQsqaUBKTNV-1" source="FqJM-CYI0kvCl4BrO27K-3" target="FqJM-CYI0kvCl4BrO27K-13">
          <mxGeometry relative="1" as="geometry" />
        </mxCell>
        <mxCell id="FqJM-CYI0kvCl4BrO27K-3" value="&lt;div&gt;remove_cart_labels&lt;/div&gt;&lt;div&gt;String: sn&lt;/div&gt;&lt;div&gt;Bool: is_cart_button&lt;br&gt;&lt;/div&gt;" style="strokeWidth=2;html=1;shape=mxgraph.flowchart.terminator;whiteSpace=wrap;" vertex="1" parent="WIyWlLk6GJQsqaUBKTNV-1">
          <mxGeometry x="70" y="10" width="130" height="60" as="geometry" />
        </mxCell>
        <mxCell id="FqJM-CYI0kvCl4BrO27K-4" value="end" style="strokeWidth=2;html=1;shape=mxgraph.flowchart.terminator;whiteSpace=wrap;" vertex="1" parent="WIyWlLk6GJQsqaUBKTNV-1">
          <mxGeometry x="85" y="680" width="100" height="60" as="geometry" />
        </mxCell>
        <mxCell id="FqJM-CYI0kvCl4BrO27K-16" value="" style="edgeStyle=none;curved=1;rounded=0;orthogonalLoop=1;jettySize=auto;html=1;fontSize=12;startSize=8;endSize=8;" edge="1" parent="WIyWlLk6GJQsqaUBKTNV-1" source="FqJM-CYI0kvCl4BrO27K-13" target="FqJM-CYI0kvCl4BrO27K-15">
          <mxGeometry relative="1" as="geometry" />
        </mxCell>
        <mxCell id="FqJM-CYI0kvCl4BrO27K-17" value="&lt;div&gt;no&lt;/div&gt;&lt;div&gt;&lt;br&gt;&lt;/div&gt;" style="edgeStyle=none;curved=1;rounded=0;orthogonalLoop=1;jettySize=auto;html=1;fontSize=12;startSize=8;endSize=8;" edge="1" parent="WIyWlLk6GJQsqaUBKTNV-1" source="FqJM-CYI0kvCl4BrO27K-13" target="FqJM-CYI0kvCl4BrO27K-15">
          <mxGeometry relative="1" as="geometry" />
        </mxCell>
        <mxCell id="FqJM-CYI0kvCl4BrO27K-24" value="" style="edgeStyle=none;curved=1;rounded=0;orthogonalLoop=1;jettySize=auto;html=1;fontSize=12;startSize=8;endSize=8;" edge="1" parent="WIyWlLk6GJQsqaUBKTNV-1" source="FqJM-CYI0kvCl4BrO27K-13" target="FqJM-CYI0kvCl4BrO27K-23">
          <mxGeometry relative="1" as="geometry" />
        </mxCell>
        <mxCell id="FqJM-CYI0kvCl4BrO27K-13" value="is_cart_button?" style="rhombus;whiteSpace=wrap;html=1;strokeWidth=2;" vertex="1" parent="WIyWlLk6GJQsqaUBKTNV-1">
          <mxGeometry x="60" y="110" width="150" height="80" as="geometry" />
        </mxCell>
        <mxCell id="FqJM-CYI0kvCl4BrO27K-19" value="" style="edgeStyle=none;curved=1;rounded=0;orthogonalLoop=1;jettySize=auto;html=1;fontSize=12;startSize=8;endSize=8;" edge="1" parent="WIyWlLk6GJQsqaUBKTNV-1" source="FqJM-CYI0kvCl4BrO27K-15" target="FqJM-CYI0kvCl4BrO27K-18">
          <mxGeometry relative="1" as="geometry" />
        </mxCell>
        <mxCell id="FqJM-CYI0kvCl4BrO27K-15" value="forget corellating frame " style="whiteSpace=wrap;html=1;strokeWidth=2;" vertex="1" parent="WIyWlLk6GJQsqaUBKTNV-1">
          <mxGeometry x="75" y="270" width="120" height="60" as="geometry" />
        </mxCell>
        <mxCell id="FqJM-CYI0kvCl4BrO27K-21" value="&lt;div&gt;no&lt;/div&gt;" style="edgeStyle=none;curved=1;rounded=0;orthogonalLoop=1;jettySize=auto;html=1;fontSize=12;startSize=8;endSize=8;" edge="1" parent="WIyWlLk6GJQsqaUBKTNV-1" source="FqJM-CYI0kvCl4BrO27K-18" target="FqJM-CYI0kvCl4BrO27K-20">
          <mxGeometry relative="1" as="geometry" />
        </mxCell>
        <mxCell id="FqJM-CYI0kvCl4BrO27K-36" value="yes" style="edgeStyle=orthogonalEdgeStyle;rounded=0;orthogonalLoop=1;jettySize=auto;html=1;fontSize=12;startSize=8;endSize=8;" edge="1" parent="WIyWlLk6GJQsqaUBKTNV-1" source="FqJM-CYI0kvCl4BrO27K-18">
          <mxGeometry relative="1" as="geometry">
            <mxPoint x="300" y="500" as="targetPoint" />
          </mxGeometry>
        </mxCell>
        <mxCell id="FqJM-CYI0kvCl4BrO27K-18" value="Error?" style="rhombus;whiteSpace=wrap;html=1;strokeWidth=2;" vertex="1" parent="WIyWlLk6GJQsqaUBKTNV-1">
          <mxGeometry x="75" y="370" width="120" height="80" as="geometry" />
        </mxCell>
        <mxCell id="FqJM-CYI0kvCl4BrO27K-22" value="" style="edgeStyle=none;curved=1;rounded=0;orthogonalLoop=1;jettySize=auto;html=1;fontSize=12;startSize=8;endSize=8;" edge="1" parent="WIyWlLk6GJQsqaUBKTNV-1" source="FqJM-CYI0kvCl4BrO27K-20" target="FqJM-CYI0kvCl4BrO27K-4">
          <mxGeometry relative="1" as="geometry" />
        </mxCell>
        <mxCell id="FqJM-CYI0kvCl4BrO27K-20" value="update_labels" style="shape=process;whiteSpace=wrap;html=1;backgroundOutline=1;strokeWidth=2;" vertex="1" parent="WIyWlLk6GJQsqaUBKTNV-1">
          <mxGeometry x="75" y="540" width="120" height="60" as="geometry" />
        </mxCell>
        <mxCell id="FqJM-CYI0kvCl4BrO27K-26" value="" style="edgeStyle=none;curved=1;rounded=0;orthogonalLoop=1;jettySize=auto;html=1;fontSize=12;startSize=8;endSize=8;" edge="1" parent="WIyWlLk6GJQsqaUBKTNV-1" source="FqJM-CYI0kvCl4BrO27K-23" target="FqJM-CYI0kvCl4BrO27K-25">
          <mxGeometry relative="1" as="geometry" />
        </mxCell>
        <mxCell id="FqJM-CYI0kvCl4BrO27K-23" value="&lt;div&gt;create messageBox&lt;/div&gt;&lt;div&gt;and ask to confirm&lt;/div&gt;&lt;div&gt;removing of item&lt;br&gt;&lt;/div&gt;" style="shape=parallelogram;perimeter=parallelogramPerimeter;whiteSpace=wrap;html=1;fixedSize=1;strokeWidth=2;" vertex="1" parent="WIyWlLk6GJQsqaUBKTNV-1">
          <mxGeometry x="280" y="120" width="155" height="60" as="geometry" />
        </mxCell>
        <mxCell id="FqJM-CYI0kvCl4BrO27K-34" value="&lt;div&gt;no&lt;/div&gt;" style="edgeStyle=orthogonalEdgeStyle;rounded=0;orthogonalLoop=1;jettySize=auto;html=1;fontSize=12;startSize=8;endSize=8;" edge="1" parent="WIyWlLk6GJQsqaUBKTNV-1" source="FqJM-CYI0kvCl4BrO27K-25">
          <mxGeometry relative="1" as="geometry">
            <mxPoint x="140" y="500" as="targetPoint" />
            <Array as="points">
              <mxPoint x="360" y="500" />
            </Array>
          </mxGeometry>
        </mxCell>
        <mxCell id="FqJM-CYI0kvCl4BrO27K-40" value="" style="edgeStyle=none;curved=1;rounded=0;orthogonalLoop=1;jettySize=auto;html=1;fontSize=12;startSize=8;endSize=8;" edge="1" parent="WIyWlLk6GJQsqaUBKTNV-1" source="FqJM-CYI0kvCl4BrO27K-25" target="FqJM-CYI0kvCl4BrO27K-38">
          <mxGeometry relative="1" as="geometry" />
        </mxCell>
        <mxCell id="FqJM-CYI0kvCl4BrO27K-25" value="Does user confirm?" style="rhombus;whiteSpace=wrap;html=1;strokeWidth=2;" vertex="1" parent="WIyWlLk6GJQsqaUBKTNV-1">
          <mxGeometry x="290" y="260" width="135" height="80" as="geometry" />
        </mxCell>
        <mxCell id="FqJM-CYI0kvCl4BrO27K-37" value="" style="edgeStyle=none;curved=1;rounded=0;orthogonalLoop=1;jettySize=auto;html=1;fontSize=12;startSize=8;endSize=8;" edge="1" parent="WIyWlLk6GJQsqaUBKTNV-1" source="FqJM-CYI0kvCl4BrO27K-38" target="FqJM-CYI0kvCl4BrO27K-39">
          <mxGeometry relative="1" as="geometry" />
        </mxCell>
        <mxCell id="FqJM-CYI0kvCl4BrO27K-38" value="forget corellating frame " style="whiteSpace=wrap;html=1;strokeWidth=2;" vertex="1" parent="WIyWlLk6GJQsqaUBKTNV-1">
          <mxGeometry x="495" y="270" width="120" height="60" as="geometry" />
        </mxCell>
        <mxCell id="FqJM-CYI0kvCl4BrO27K-41" value="&lt;div&gt;no&lt;/div&gt;" style="edgeStyle=orthogonalEdgeStyle;rounded=0;orthogonalLoop=1;jettySize=auto;html=1;fontSize=12;startSize=8;endSize=8;" edge="1" parent="WIyWlLk6GJQsqaUBKTNV-1" source="FqJM-CYI0kvCl4BrO27K-39">
          <mxGeometry relative="1" as="geometry">
            <mxPoint x="355" y="500" as="targetPoint" />
            <Array as="points">
              <mxPoint x="555" y="500" />
            </Array>
          </mxGeometry>
        </mxCell>
        <mxCell id="FqJM-CYI0kvCl4BrO27K-42" value="yes" style="edgeStyle=orthogonalEdgeStyle;rounded=0;orthogonalLoop=1;jettySize=auto;html=1;fontSize=12;startSize=8;endSize=8;" edge="1" parent="WIyWlLk6GJQsqaUBKTNV-1" source="FqJM-CYI0kvCl4BrO27K-39">
          <mxGeometry relative="1" as="geometry">
            <mxPoint x="430" y="500" as="targetPoint" />
          </mxGeometry>
        </mxCell>
        <mxCell id="FqJM-CYI0kvCl4BrO27K-39" value="Error?" style="rhombus;whiteSpace=wrap;html=1;strokeWidth=2;" vertex="1" parent="WIyWlLk6GJQsqaUBKTNV-1">
          <mxGeometry x="495" y="370" width="120" height="80" as="geometry" />
        </mxCell>
      </root>
    </mxGraphModel>
  </diagram>
</mxfile>
